<mxfile host="app.diagrams.net" modified="2022-03-06T10:21:39.207Z" agent="5.0 (Windows NT 10.0; Win64; x64) AppleWebKit/537.36 (KHTML, like Gecko) Chrome/99.0.4844.51 Safari/537.36 Edg/99.0.1150.30" etag="hu_ZkHtWBSdXc9KaUtWQ" version="16.6.6" type="github">
  <diagram id="Bnc7cdqb5XyzGMDuOjgs" name="Page-1">
    <mxGraphModel dx="1374" dy="754" grid="1" gridSize="10" guides="1" tooltips="1" connect="1" arrows="1" fold="1" page="1" pageScale="1" pageWidth="850" pageHeight="1100" math="0" shadow="0">
      <root>
        <mxCell id="0" />
        <mxCell id="1" parent="0" />
      </root>
    </mxGraphModel>
  </diagram>
</mxfile>
